<?xml version="1.0" encoding="UTF-8" standalone="no"?><!-- Generator: Gravit.io --><svg xmlns="http://www.w3.org/2000/svg" xmlns:xlink="http://www.w3.org/1999/xlink" style="isolation:isolate" viewBox="0 0 24 24" width="24pt" height="24pt"><defs><clipPath id="_clipPath_Rtfs1QMbBLuqYR9jJkK51oSAZSaUAzls"><rect width="24" height="24"/></clipPath></defs><g clip-path="url(#_clipPath_Rtfs1QMbBLuqYR9jJkK51oSAZSaUAzls)"><path d="M 1.423 0 L 22.577 0 C 23.362 0 24 0.638 24 1.423 L 24 3.577 C 24 4.362 23.362 5 22.577 5 L 1.423 5 C 0.638 5 0 4.362 0 3.577 L 0 1.423 C 0 0.638 0.638 0 1.423 0 Z" style="stroke:none;fill:#8E2424;stroke-miterlimit:10;"/><path d="M 1.423 9.5 L 22.577 9.5 C 23.362 9.5 24 10.138 24 10.923 L 24 13.077 C 24 13.862 23.362 14.5 22.577 14.5 L 1.423 14.5 C 0.638 14.5 0 13.862 0 13.077 L 0 10.923 C 0 10.138 0.638 9.5 1.423 9.5 Z" style="stroke:none;fill:#8E2424;stroke-miterlimit:10;"/><path d="M 1.423 19 L 22.577 19 C 23.362 19 24 19.638 24 20.423 L 24 22.577 C 24 23.362 23.362 24 22.577 24 L 1.423 24 C 0.638 24 0 23.362 0 22.577 L 0 20.423 C 0 19.638 0.638 19 1.423 19 Z" style="stroke:none;fill:#8E2424;stroke-miterlimit:10;"/></g></svg>